<svg id="Layer_5" enable-background="new 0 0 64 64" height="512" viewBox="0 0 64 64" width="512" xmlns="http://www.w3.org/2000/svg"><path d="m37.5 52 1 4h-13l1-4z" fill="#cf9e76"/><circle cx="50" cy="38" fill="#b4dd7f" r="12"/><circle cx="14" cy="14" fill="#b4dd7f" r="12"/><path d="m42.3 47.21 3.7 14.79h-6l-1.5-6-1-4-1.6-6.4v-.01c1.35-.28 2.65-.71 3.89-1.27.33.54.71 1.05 1.12 1.52.43.49.89.95 1.39 1.37z" fill="#cf9e76"/><path d="m28.1 45.6-1.6 6.4-1 4-1.5 6h-6l4.62-18.49c1.68.97 3.53 1.68 5.48 2.09z" fill="#cf9e76"/><path d="m38.15 36.12c-.1.61-.15 1.24-.15 1.88 0 2.32.66 4.49 1.79 6.32-1.24.56-2.54.99-3.89 1.27-1.26.27-2.56.41-3.9.41-1.33 0-2.64-.14-3.9-.4-1.95-.41-3.8-1.12-5.48-2.09-5.74-3.25-9.62-9.43-9.62-16.51 0-.35.03-.69.05-1.04.31.03.63.04.95.04 2.92 0 5.59-1.04 7.67-2.77-.42 1.18-.67 2.45-.67 3.77 0 6.08 4.92 11 11 11 2.28 0 4.39-.7 6.15-1.88z" fill="#ff826e"/><path d="m50.95 26.04c-.31-.03-.63-.04-.95-.04-2.65 0-5.1.86-7.09 2.31.05-.42.09-.87.09-1.31 0-6.08-4.92-11-11-11-2.59 0-4.95.9-6.83 2.39.54-1.36.83-2.84.83-4.39 0-1.66-.33-3.23-.94-4.67 2.15-.85 4.49-1.33 6.94-1.33 10.17 0 18.44 7.99 18.95 18.04z" fill="#ff826e"/><path d="m43 27c0 .44-.04.89-.09 1.31-2.5 1.83-4.26 4.61-4.76 7.81-1.76 1.18-3.87 1.88-6.15 1.88-6.08 0-11-4.92-11-11 0-1.32.25-2.59.67-3.77.51-.42.98-.89 1.42-1.39.88-1.01 1.59-2.18 2.08-3.45 1.88-1.49 4.24-2.39 6.83-2.39 6.08 0 11 4.92 11 11z" fill="#fcd770"/><circle cx="32" cy="27" fill="#fc6e51" r="5"/><path d="m13.05 25.96c-3.25-.25-6.13-1.8-8.14-4.12l.01-.01c1.58-3.44 5.05-5.83 9.08-5.83s7.5 2.39 9.08 5.83l.01.01c-.44.5-.91.97-1.42 1.39-2.08 1.73-4.75 2.77-7.67 2.77-.32 0-.64-.01-.95-.04z" fill="#4fc1e9"/><path d="m59.09 45.84c-2.2 2.55-5.46 4.16-9.09 4.16-2.93 0-5.62-1.05-7.7-2.79-.5-.42-.96-.88-1.39-1.37l.01-.01c1.58-3.44 5.05-5.83 9.08-5.83s7.5 2.39 9.08 5.83z" fill="#fcd770"/><circle cx="14" cy="12" fill="#f0d0b4" r="4"/><circle cx="50" cy="36" fill="#f0d0b4" r="4"/><path d="m32 33c3.309 0 6-2.691 6-6s-2.691-6-6-6-6 2.691-6 6 2.691 6 6 6zm0-10c2.206 0 4 1.794 4 4s-1.794 4-4 4-4-1.794-4-4 1.794-4 4-4z"/><path d="m1 61h2v2h-2z"/><path d="m61 61h2v2h-2z"/><path d="m50 51c7.168 0 13-5.832 13-13 0-6.532-4.848-11.94-11.133-12.85-.942-10.241-9.496-18.15-19.867-18.15-2.188 0-4.345.384-6.432 1.098-2.155-4.207-6.526-7.098-11.568-7.098-7.168 0-13 5.832-13 13 0 6.489 4.784 11.867 11.007 12.831-.001.057-.007.112-.007.169 0 7.165 3.799 13.443 9.476 16.975l-4.256 17.025h-12.22v2h54v-2h-12.22l-2.882-11.528c1.822.973 3.898 1.528 6.102 1.528zm-27.444-27.238c1.473-1.292 2.659-2.903 3.43-4.735 1.749-1.323 3.82-2.027 6.014-2.027 5.514 0 10 4.486 10 10 0 .251-.017.523-.042.806-2.387 1.887-4.1 4.586-4.709 7.681-1.579.979-3.379 1.513-5.249 1.513-5.514 0-10-4.486-10-10 0-1.09.192-2.178.556-3.238zm27.444 25.238c-3.078 0-5.861-1.274-7.859-3.319 1.573-2.855 4.578-4.681 7.859-4.681 3.28 0 6.286 1.825 7.86 4.681-1.999 2.044-4.782 3.319-7.86 3.319zm-3-13c0-1.654 1.346-3 3-3s3 1.346 3 3-1.346 3-3 3-3-1.346-3-3zm14 2c0 2.213-.663 4.272-1.792 6-1.364-2.088-3.397-3.637-5.727-4.422.934-.909 1.519-2.175 1.519-3.578 0-2.757-2.243-5-5-5s-5 2.243-5 5c0 1.403.585 2.669 1.52 3.578-2.331.785-4.364 2.333-5.727 4.422-1.13-1.727-1.793-3.786-1.793-6 0-6.065 4.935-11 11-11s11 4.935 11 11zm-29-29c9.222 0 16.849 6.95 17.846 16.008-2.117.025-4.111.558-5.871 1.484-.27-6.381-5.529-11.492-11.975-11.492-1.832 0-3.591.414-5.2 1.195.122-.715.2-1.445.2-2.195 0-1.417-.236-2.778-.657-4.056 1.839-.614 3.735-.944 5.657-.944zm-18-6c6.065 0 11 4.935 11 11 0 2.214-.663 4.273-1.792 6-1.363-2.089-3.396-3.638-5.727-4.422.934-.909 1.519-2.175 1.519-3.578 0-2.757-2.243-5-5-5s-5 2.243-5 5c0 1.403.585 2.669 1.52 3.578-2.331.784-4.364 2.333-5.728 4.422-1.129-1.728-1.792-3.787-1.792-6 0-6.065 4.935-11 11-11zm-3 9c0-1.654 1.346-3 3-3s3 1.346 3 3-1.346 3-3 3-3-1.346-3-3zm-4.86 9.68c1.573-2.855 4.579-4.68 7.86-4.68s6.287 1.826 7.859 4.681c-1.998 2.045-4.781 3.319-7.859 3.319s-5.862-1.275-7.86-3.32zm7.86 5.32c2.209 0 4.289-.557 6.113-1.533-.068.509-.113 1.02-.113 1.533 0 6.617 5.383 12 12 12 1.745 0 3.444-.379 5.005-1.096 0 .032-.005.063-.005.096 0 2.083.505 4.047 1.38 5.794-2.052.785-4.188 1.206-6.38 1.206-9.925 0-18-8.075-18-18zm12.28 30h11.44l1 4h-13.44zm.5-2 .5-2h9.44l.5 2zm1-4 1.068-4.273c1.03.164 2.077.273 3.152.273 1.063 0 2.112-.112 3.15-.279l1.07 4.279zm-4.493-6.026c1.146.558 2.35 1.007 3.604 1.339l-3.671 14.687h-3.94zm21.433 16.026h-3.94l-3.674-14.696c.783-.209 1.555-.466 2.317-.773.575.805 1.239 1.539 1.978 2.193z"/><path d="m24.817 41.3c.631.318 1.293.598 1.966.83l.652-1.891c-.589-.203-1.166-.447-1.718-.725z"/><path d="m35.198 42.681-.396-1.961c-.609.124-1.231.207-1.849.248l.133 1.996c.706-.048 1.417-.143 2.112-.283z"/><path d="m28.842 42.688c.694.14 1.406.233 2.115.278l.127-1.996c-.62-.039-1.241-.121-1.848-.243z"/><path d="m43.201 18.601 1.6-1.201c-.573-.764-1.22-1.481-1.923-2.133l-1.359 1.467c.615.57 1.18 1.198 1.682 1.867z"/><path d="m32 13c3.059 0 5.963.968 8.4 2.8l1.201-1.6c-2.786-2.094-6.106-3.2-9.601-3.2-1.074 0-2.15.107-3.198.319l.396 1.961c.918-.186 1.861-.28 2.802-.28z"/></svg>